<svg xmlns="http://www.w3.org/2000/svg" xmlns:xlink="http://www.w3.org/1999/xlink" width="23" height="23" viewBox="0 0 23 23">
  <defs>
    <clipPath id="clip-path">
      <rect id="Rectangle_34" data-name="Rectangle 34" width="23" height="23" transform="translate(34 574)" fill="#f4f4f4"/>
    </clipPath>
  </defs>
  <g id="Mask_Group_8" data-name="Mask Group 8" transform="translate(-34 -574)" clip-path="url(#clip-path)">
    <path id="laptop-mobile_1_" data-name="laptop-mobile (1)" d="M1.917,14.375a.961.961,0,0,0,.958.958h7.667a.958.958,0,1,1,0,1.917H2.875a2.87,2.87,0,0,1-.958-5.578V4.792A4.793,4.793,0,0,1,6.708,0h9.583a4.793,4.793,0,0,1,4.792,4.792V5.75a.958.958,0,1,1-1.917,0V4.792a2.883,2.883,0,0,0-2.875-2.875H6.708A2.883,2.883,0,0,0,3.833,4.792V11.5H8.146a.99.99,0,0,1,.68.278l.68.68h1.045a.958.958,0,0,1,0,1.917H9.114a.99.99,0,0,1-.68-.278l-.68-.68H2.875A.961.961,0,0,0,1.917,14.375ZM23,12.458v6.708A3.832,3.832,0,0,1,19.167,23H17.25a3.832,3.832,0,0,1-3.833-3.833V12.458A3.832,3.832,0,0,1,17.25,8.625h1.917A3.832,3.832,0,0,1,23,12.458Zm-1.917,0a1.922,1.922,0,0,0-1.917-1.917H17.25a1.922,1.922,0,0,0-1.917,1.917v6.708a1.922,1.922,0,0,0,1.917,1.917h1.917a1.922,1.922,0,0,0,1.917-1.917Z" transform="translate(34 574)"/>
  </g>
</svg>
