<svg xmlns="http://www.w3.org/2000/svg" width="21.313" height="17.62" viewBox="0 0 21.313 17.62">
  <g id="Icon_feather-camera" data-name="Icon feather-camera" transform="translate(0.5 0.5)">
    <path id="Path_78" data-name="Path 78" d="M21.813,19.273a1.847,1.847,0,0,1-1.847,1.847H3.347A1.847,1.847,0,0,1,1.5,19.273V9.117A1.847,1.847,0,0,1,3.347,7.27H7.04L8.887,4.5h5.54l1.847,2.77h3.693a1.847,1.847,0,0,1,1.847,1.847Z" transform="translate(-1.5 -4.5)" fill="none" stroke="#fff" stroke-linecap="round" stroke-linejoin="round" stroke-width="1"/>
    <path id="Path_79" data-name="Path 79" d="M18.124,16.562A3.062,3.062,0,1,1,15.062,13.5,3.062,3.062,0,0,1,18.124,16.562Z" transform="translate(-4.905 -6.503)" fill="none" stroke="#fff" stroke-linecap="round" stroke-linejoin="round" stroke-width="1"/>
  </g>
</svg>
