<svg xmlns="http://www.w3.org/2000/svg" xmlns:xlink="http://www.w3.org/1999/xlink" width="23" height="23" viewBox="0 0 23 23">
  <defs>
    <clipPath id="clip-path">
      <rect id="Rectangle_32" data-name="Rectangle 32" width="23" height="23" transform="translate(34 418)" fill="#f4f4f4"/>
    </clipPath>
  </defs>
  <g id="Mask_Group_5" data-name="Mask Group 5" transform="translate(-34 -418)" clip-path="url(#clip-path)">
    <path id="doctor" d="M18.208,4.792H15.333V3.833A2.875,2.875,0,0,0,12.458.958H10.542A2.875,2.875,0,0,0,7.667,3.833v.958H4.792A4.8,4.8,0,0,0,0,9.583V17.25a4.8,4.8,0,0,0,4.792,4.792H18.208A4.8,4.8,0,0,0,23,17.25V9.583a4.8,4.8,0,0,0-4.792-4.792ZM9.583,3.833a.958.958,0,0,1,.958-.958h1.917a.958.958,0,0,1,.958.958v.958H9.583Zm11.5,13.417a2.875,2.875,0,0,1-2.875,2.875H4.792A2.875,2.875,0,0,1,1.917,17.25V9.583A2.875,2.875,0,0,1,4.792,6.708H18.208a2.875,2.875,0,0,1,2.875,2.875Zm-5.75-3.833a.958.958,0,0,1-.958.958H12.458v1.917a.958.958,0,1,1-1.917,0V14.375H8.625a.958.958,0,1,1,0-1.917h1.917V10.542a.958.958,0,0,1,1.917,0v1.917h1.917A.958.958,0,0,1,15.333,13.417Z" transform="translate(34 418)"/>
  </g>
</svg>
