<svg xmlns="http://www.w3.org/2000/svg" xmlns:xlink="http://www.w3.org/1999/xlink" width="23" height="23" viewBox="0 0 23 23">
  <defs>
    <clipPath id="clip-path">
      <rect id="Rectangle_31" data-name="Rectangle 31" width="23" height="23" transform="translate(34 340)" fill="#f4f4f4"/>
    </clipPath>
  </defs>
  <g id="Mask_Group_4" data-name="Mask Group 4" transform="translate(-34 -340)" clip-path="url(#clip-path)">
    <path id="users-alt" d="M11.5,15.333A3.833,3.833,0,1,1,15.333,11.5,3.833,3.833,0,0,1,11.5,15.333Zm0-5.75A1.917,1.917,0,1,0,13.417,11.5,1.917,1.917,0,0,0,11.5,9.583Zm5.75,12.458a5.75,5.75,0,1,0-11.5,0,.958.958,0,0,0,1.917,0,3.833,3.833,0,1,1,7.667,0,.958.958,0,1,0,1.917,0Zm0-14.375a3.833,3.833,0,1,1,3.833-3.833A3.833,3.833,0,0,1,17.25,7.667Zm0-5.75a1.917,1.917,0,1,0,1.917,1.917A1.917,1.917,0,0,0,17.25,1.917ZM23,14.375a5.756,5.756,0,0,0-5.75-5.75.958.958,0,1,0,0,1.917,3.833,3.833,0,0,1,3.833,3.833.958.958,0,0,0,1.917,0ZM5.75,7.667A3.833,3.833,0,1,1,9.583,3.833,3.833,3.833,0,0,1,5.75,7.667Zm0-5.75A1.917,1.917,0,1,0,7.667,3.833,1.917,1.917,0,0,0,5.75,1.917ZM1.917,14.375A3.833,3.833,0,0,1,5.75,10.542a.958.958,0,0,0,0-1.917A5.756,5.756,0,0,0,0,14.375a.958.958,0,0,0,1.917,0Z" transform="translate(34 340)"/>
  </g>
</svg>
